<?xml version="1.0" encoding="UTF-8"?>
<svg version="1.1" xmlns="http://www.w3.org/2000/svg" width="247" height="239">
<path d="M0 0 C0.64241774 -0.00226556 1.28483548 -0.00453111 1.94672042 -0.00686532 C4.09135524 -0.01317646 6.2359264 -0.01237781 8.38056946 -0.0115509 C9.92171307 -0.01454428 11.46285593 -0.01794722 13.0039978 -0.02172852 C17.18606198 -0.03055655 21.36810569 -0.03290618 25.55017829 -0.0335443 C28.16594959 -0.03425571 30.78171572 -0.0363918 33.39748573 -0.03904152 C42.53182428 -0.04829237 51.66614825 -0.0523769 60.80049133 -0.05158997 C69.29996435 -0.05098988 77.79937376 -0.06152884 86.29883069 -0.07733363 C93.60688597 -0.09043615 100.91492054 -0.09577269 108.22298747 -0.09513456 C112.58278026 -0.09488028 116.94251656 -0.0976922 121.30229759 -0.10831261 C125.40713027 -0.11803881 129.51185299 -0.11804195 133.61668968 -0.11079597 C135.11701113 -0.10975559 136.61733958 -0.11208028 138.11764908 -0.11815643 C152.33863315 -0.171985 164.83829844 0.74049308 175.46772766 11.13371277 C180.508314 17.75210037 183.31127617 24.69822767 182.46772766 33.13371277 C179.6170926 44.08274289 174.86517623 50.03812026 165.32319641 55.87199402 C156.56892685 59.74015964 147.46982227 59.42030409 138.1007843 59.39250183 C136.55904984 59.39521603 135.01731667 59.39877937 133.47558594 59.40312195 C129.31025837 59.41219796 125.14503047 59.40872134 120.97970128 59.40236378 C116.60684659 59.39727799 112.23400007 59.40200246 107.86114502 59.40513611 C100.51848326 59.40876864 93.17586181 59.40399578 85.83320618 59.39445496 C77.3631813 59.38357584 68.89325277 59.38709492 60.42323023 59.39810777 C53.13207398 59.40720582 45.84094661 59.40845351 38.54978651 59.40323043 C34.20347386 59.40012403 29.85720637 59.39966454 25.51089668 59.40630341 C21.42241634 59.41211283 17.33405925 59.40801465 13.24559212 59.39651489 C11.75172123 59.39388727 10.25783984 59.39460064 8.76397324 59.39904022 C-4.67170508 59.4352648 -16.71455609 58.92762591 -26.84477234 49.25871277 C-32.992197 42.76172866 -34.9202471 36.30484598 -34.73149109 27.52043152 C-33.96704956 18.36212222 -29.43231638 12.05246313 -22.53227234 6.13371277 C-15.23548714 1.77757188 -8.45290086 0.01234435 0 0 Z " fill="#00C3CB" transform="translate(50.53227233886719,166.8662872314453)"/>
<path d="M0 0 C1.60261898 -0.00407197 3.20523515 -0.00941734 4.80784607 -0.01593018 C9.13423736 -0.02953423 13.46041253 -0.02433418 17.7868073 -0.01479292 C22.32829037 -0.00716164 26.86975577 -0.0142514 31.41123962 -0.01895142 C39.03460998 -0.02439835 46.65789294 -0.01724473 54.28125 -0.00292969 C63.07911143 0.01340064 71.8767643 0.00810126 80.67462069 -0.0084089 C88.24689291 -0.02204711 95.81910257 -0.02393221 103.39138311 -0.0160929 C107.9059007 -0.01142995 112.42032042 -0.01075355 116.93483162 -0.02070236 C121.17932277 -0.02940403 125.42354638 -0.02329203 129.6680088 -0.00601959 C131.22035021 -0.00207203 132.77271435 -0.00315896 134.32504654 -0.00980759 C146.22969689 -0.05607277 155.93230087 0.91833375 164.95288086 9.38818359 C170.88443722 16.09570853 173.79137128 22.38769536 173.95288086 31.38818359 C173.29109001 40.05029044 168.87928277 45.77412863 162.76538086 51.63818359 C153.50451369 58.87565532 142.87108121 58.96950041 131.62451172 58.90576172 C130.00366083 58.91119233 128.38281488 58.91832023 126.76197815 58.92700195 C122.39007186 58.94512529 118.01854619 58.938214 113.64663386 58.92548561 C109.05490449 58.91530234 104.46320598 58.92476584 99.87147522 58.93103027 C92.16409501 58.93829051 84.45686854 58.92876097 76.74951172 58.90966797 C67.85786914 58.88789461 58.96659342 58.89496048 50.0749597 58.91697359 C42.41856224 58.93516476 34.76227478 58.93766802 27.10586268 58.92721891 C22.54267624 58.92100536 17.9796619 58.9200893 13.41648674 58.93336487 C9.12594103 58.94497735 4.83586539 58.93679993 0.5453701 58.91378784 C-1.02267428 58.90852975 -2.59075869 58.90996445 -4.15878677 58.9188385 C-16.66379097 58.98304795 -26.6473968 57.13892733 -36.04711914 48.38818359 C-41.68067237 42.16690598 -43.56222785 35.33765445 -43.35961914 27.00537109 C-42.43677388 19.27654205 -38.80399458 12.57630749 -33.04711914 7.38818359 C-22.87379178 0.3451108 -12.0104001 -0.05151402 0 0 Z " fill="#5E18EA" transform="translate(59.047119140625,7.61181640625)"/>
<path d="M0 0 C0.67538388 -0.00523668 1.35076775 -0.01047336 2.04661781 -0.01586872 C4.29097163 -0.03077072 6.5350955 -0.03157169 8.77949524 -0.03224182 C10.39650858 -0.03987002 12.01351832 -0.04829864 13.63052368 -0.0574646 C18.01094757 -0.07935367 22.39130166 -0.08820117 26.77177405 -0.09329104 C29.5132102 -0.09694178 32.25462828 -0.10318562 34.99605751 -0.11029243 C44.57361778 -0.13476925 54.15112405 -0.14783463 63.72871399 -0.15138245 C72.63389122 -0.15501449 81.53872313 -0.18489059 90.44379491 -0.22678703 C98.10691709 -0.26156684 105.76992527 -0.27693223 113.43312579 -0.27762848 C118.00210817 -0.27841879 122.5707386 -0.28704344 127.1396389 -0.31562614 C131.44165393 -0.34193852 135.74302855 -0.34393931 140.04508781 -0.3279705 C141.61553605 -0.32616632 143.18602223 -0.33275269 144.75638962 -0.34878922 C156.43317191 -0.46067102 166.47192461 0.95020698 175.43696594 9.02415466 C181.16907679 15.37595317 184.04094482 22.7033247 183.93696594 31.27415466 C183.28334077 39.40970202 179.69785943 44.6858452 173.89399719 50.22337341 C164.03354201 58.54804089 153.33321307 58.71844103 140.92158508 58.6782074 C139.32220994 58.68391937 137.72283886 58.69088682 136.12347412 58.69900513 C131.80522419 58.71685983 127.48717831 58.71578278 123.16890264 58.71006274 C119.55327041 58.70695987 115.93767675 58.71307547 112.32205003 58.71910149 C103.78748704 58.73311971 95.2530242 58.73160784 86.71846008 58.72019958 C77.93649947 58.70871948 69.15484429 58.72279836 60.37292391 58.74959606 C52.81080774 58.77180098 45.24878711 58.77837971 37.68664068 58.77251965 C33.17984441 58.7691605 28.6732439 58.77149553 24.1664753 58.78877068 C19.92684547 58.80431455 15.68766588 58.80020249 11.44805336 58.78146553 C9.89977348 58.77780021 8.35145967 58.78082753 6.80321121 58.79135132 C-6.46550345 58.87459799 -16.21126416 57.0079489 -25.96147156 47.58274841 C-29.80562888 43.35989158 -32.51012926 39.07965499 -33.06303406 33.27415466 C-33.12619812 32.62833435 -33.18936218 31.98251404 -33.25444031 31.31712341 C-33.67975063 23.48318167 -31.1872491 16.64048652 -26.37553406 10.46165466 C-19.45820481 3.05522133 -9.93871174 0.03844933 0 0 Z " fill="#020305" transform="translate(49.06303405761719,87.72584533691406)"/>
<path d="M0 0 C0.64241774 -0.00226556 1.28483548 -0.00453111 1.94672042 -0.00686532 C4.09135524 -0.01317646 6.2359264 -0.01237781 8.38056946 -0.0115509 C9.92171307 -0.01454428 11.46285593 -0.01794722 13.0039978 -0.02172852 C17.18606198 -0.03055655 21.36810569 -0.03290618 25.55017829 -0.0335443 C28.16594959 -0.03425571 30.78171572 -0.0363918 33.39748573 -0.03904152 C42.53182428 -0.04829237 51.66614825 -0.0523769 60.80049133 -0.05158997 C69.29996435 -0.05098988 77.79937376 -0.06152884 86.29883069 -0.07733363 C93.60688597 -0.09043615 100.91492054 -0.09577269 108.22298747 -0.09513456 C112.58278026 -0.09488028 116.94251656 -0.0976922 121.30229759 -0.10831261 C125.40713027 -0.11803881 129.51185299 -0.11804195 133.61668968 -0.11079597 C135.11701113 -0.10975559 136.61733958 -0.11208028 138.11764908 -0.11815643 C152.33863315 -0.171985 164.83829844 0.74049308 175.46772766 11.13371277 C180.5677065 17.83008388 183.1115245 24.60340469 182.46772766 33.13371277 C181.84455295 34.48791936 181.18514594 35.82698662 180.46772766 37.13371277 C180.42905579 35.93875183 180.42905579 35.93875183 180.38960266 34.71965027 C180.03755966 28.14284685 179.48550269 24.31793862 175.46772766 19.13371277 C175.46772766 17.81371277 175.46772766 16.49371277 175.46772766 15.13371277 C174.49835266 14.86558777 173.52897766 14.59746277 172.53022766 14.32121277 C171.01429016 13.73340027 171.01429016 13.73340027 169.46772766 13.13371277 C169.13772766 12.14371277 168.80772766 11.15371277 168.46772766 10.13371277 C162.36105939 6.40185994 156.50801308 5.11728206 149.46772766 4.13371277 C149.46772766 3.80371277 149.46772766 3.47371277 149.46772766 3.13371277 C129.45771462 3.08701561 109.44771261 3.05173513 89.4376564 3.03008842 C80.14688039 3.01977085 70.85613821 3.00570132 61.56538391 2.98283386 C53.46864129 2.96291472 45.37192318 2.94999983 37.27515674 2.94553578 C32.98701365 2.9429259 28.69894066 2.93678154 24.41082001 2.92225266 C20.37584741 2.90869206 16.3409739 2.90448704 12.30598068 2.90749741 C10.82410265 2.90694656 9.34222135 2.90296003 7.86036301 2.89530182 C5.83866006 2.88536498 3.81690413 2.88893226 1.79518127 2.89320374 C0.66321949 2.89136015 -0.46874229 2.88951656 -1.63500595 2.88761711 C-4.50759683 3.13161681 -6.08319631 3.68890021 -8.53227234 5.13371277 C-9.90325709 5.52313645 -11.27858449 5.89750673 -12.65727234 6.25871277 C-17.7448616 7.88169579 -21.27018535 10.83461339 -25.27055359 14.29386902 C-27.3066261 15.95015598 -29.14331991 17.07863767 -31.53227234 18.13371277 C-27.74164816 9.99021871 -22.38065553 5.50946211 -14.18070984 2.04386902 C-9.40075656 0.40120071 -5.04588128 0.00736884 0 0 Z " fill="#68D6D9" transform="translate(50.53227233886719,166.8662872314453)"/>
<path d="M0 0 C4.65272826 1.23160454 6.71202698 3.69750469 9.5703125 7.34375 C11.82760552 9.95875613 13.48102148 10.95403924 16.92366314 11.25891972 C18.12727395 11.26315166 19.33088476 11.26738359 20.57096863 11.27174377 C21.24167352 11.27683061 21.9123784 11.28191745 22.60340768 11.28715843 C24.85569886 11.30184662 27.10777167 11.30235333 29.36010742 11.30297852 C30.97316921 11.3106383 32.58622701 11.3191844 34.19927979 11.32855225 C37.67618946 11.34684837 41.15304516 11.358876 44.62999535 11.36609077 C50.13110072 11.37756983 55.632087 11.40302563 61.13313293 11.43040466 C69.83935266 11.47208629 78.54557814 11.50448089 87.25185043 11.53287882 C102.82756699 11.58377801 118.40323273 11.64614905 133.97886544 11.71821922 C139.44345658 11.74308326 144.90803244 11.76254217 150.37265909 11.77760136 C153.77971361 11.78783953 157.18674437 11.80198677 160.59378052 11.81707764 C162.1691106 11.82320943 163.74444819 11.82768196 165.31978798 11.83033562 C179.98751802 11.8564438 179.98751802 11.8564438 187 13 C187 13.33 187 13.66 187 14 C182.72820125 14.81270253 178.6933318 15.12736111 174.34747314 15.13371277 C173.3825649 15.1371111 173.3825649 15.1371111 172.39816356 15.14057809 C170.25663471 15.14687527 168.11516985 15.14609149 165.97363281 15.14526367 C164.4323417 15.14825788 162.89105134 15.15166101 161.34976196 15.15544128 C157.17188909 15.16425987 152.99403671 15.16661853 148.81615543 15.16725707 C146.20255636 15.1679689 143.58896247 15.17010578 140.97536469 15.17275429 C131.8475054 15.18200134 122.71966069 15.18609006 113.59179688 15.18530273 C105.09968747 15.18470244 96.60764169 15.19524642 88.11554837 15.2110464 C80.81171918 15.22414852 73.5079107 15.22948549 66.20406985 15.22884732 C61.8476454 15.22859308 57.49127749 15.23140347 53.13486481 15.24202538 C49.03412272 15.25175116 44.93349071 15.251755 40.8327446 15.24450874 C39.33403486 15.24346838 37.83531811 15.24579295 36.33662033 15.2518692 C14.013564 15.33645846 14.013564 15.33645846 5 9 C2.79339299 6.80753791 0.85178214 4.49710016 -1 2 C-0.67 1.34 -0.34 0.68 0 0 Z " fill="#51D6DA" transform="translate(23,211)"/>
<path d="M0 0 C0.68002512 -0.00226556 1.36005024 -0.00453111 2.06068218 -0.00686532 C4.33221008 -0.01317979 6.60367793 -0.01237762 8.87521362 -0.0115509 C10.50653154 -0.01454387 12.13784876 -0.01794671 13.76916504 -0.02172852 C18.19455288 -0.03055573 22.61992138 -0.03290601 27.04531717 -0.0335443 C30.73848515 -0.03449423 34.43164863 -0.03817323 38.12481487 -0.0417164 C46.83393448 -0.04985502 55.54304377 -0.05230106 64.25216675 -0.05158997 C73.24369772 -0.05098835 82.23516887 -0.06155824 91.22668469 -0.07733363 C98.94396883 -0.09039214 106.66123336 -0.09577462 114.37852848 -0.09513456 C118.98904899 -0.0948792 123.59951626 -0.09775141 128.21002579 -0.10831261 C132.54218985 -0.11796594 136.87424942 -0.11809189 141.20641708 -0.11079597 C142.79836936 -0.10974689 144.39032806 -0.11213211 145.98226929 -0.11815643 C148.15090156 -0.12583341 150.31916898 -0.12126054 152.48779297 -0.11352539 C153.70267458 -0.11407016 154.91755619 -0.11461493 156.1692524 -0.1151762 C159.11691284 0.13371277 159.11691284 0.13371277 162.11691284 2.13371277 C161.78691284 2.79371277 161.45691284 3.45371277 161.11691284 4.13371277 C159.83834711 4.13094739 159.83834711 4.13094739 158.53395176 4.12812614 C137.77628882 4.0839224 117.01863401 4.05084416 96.26093388 4.03008842 C86.22259389 4.01978386 76.18428537 4.00573917 66.14596558 3.98283386 C57.39471443 3.96287492 48.64348608 3.94999038 39.89221281 3.94553578 C35.26018066 3.94293265 30.62821369 3.93683119 25.99620247 3.92225266 C21.63208516 3.90862918 17.26805959 3.90449974 12.90392303 3.90749741 C11.30642892 3.90694937 9.70893158 3.9030004 8.11145592 3.89530182 C-1.6288686 3.7710731 -1.6288686 3.7710731 -11.21757507 5.27290344 C-12.42719406 5.55697052 -13.63681305 5.8410376 -14.88308716 6.13371277 C-15.87308716 5.47371277 -16.86308716 4.81371277 -17.88308716 4.13371277 C-11.6997696 0.82635686 -6.97700604 0.00961832 0 0 Z " fill="#2B2C2E" transform="translate(48.883087158203125,87.86628723144531)"/>
<path d="M0 0 C54.12 0 108.24 0 164 0 C164.33 0.99 164.66 1.98 165 3 C162.36 3 159.72 3 157 3 C157 3.33 157 3.66 157 4 C156.21939807 4.00423194 155.43879614 4.00846388 154.6345396 4.01282406 C135.65646502 4.11604821 116.67842843 4.22467356 97.70041943 4.33933926 C88.5228675 4.39465952 79.34531169 4.44813957 70.16772461 4.49731445 C62.17021713 4.54017094 54.17273814 4.58645265 46.17527467 4.63687855 C41.93918237 4.66346767 37.70309568 4.68832048 33.46697044 4.70907402 C29.48206026 4.72865087 25.49720424 4.75279783 21.51234245 4.78049088 C20.04779798 4.78985574 18.58324163 4.79753306 17.11867905 4.80341911 C15.12285266 4.81168974 13.12705681 4.8265554 11.13127136 4.84178162 C9.45406903 4.85146044 9.45406903 4.85146044 7.74298382 4.8613348 C4.90788354 4.88185708 4.90788354 4.88185708 2 6 C2 5.34 2 4.68 2 4 C1.34 3.67 0.68 3.34 0 3 C0 2.01 0 1.02 0 0 Z " fill="#8455E0" transform="translate(43,8)"/>
<path d="M0 0 C0.33 0.66 0.66 1.32 1 2 C-2.59808947 3.1209478 -5.95257996 3.12312494 -9.70709229 3.12025452 C-10.71677271 3.12153615 -10.71677271 3.12153615 -11.74685073 3.12284368 C-14.0008573 3.12448993 -16.25478935 3.11899111 -18.50878906 3.11352539 C-20.12512205 3.11324331 -21.74145517 3.11340166 -23.35778809 3.1139679 C-27.74585224 3.11425505 -32.1338891 3.10837152 -36.52194691 3.10139394 C-41.10770848 3.0951468 -45.69347067 3.09455552 -50.27923584 3.09336853 C-58.96310385 3.09025924 -67.64695928 3.08205124 -76.33082175 3.07201904 C-86.21706085 3.06084545 -96.10330055 3.05534431 -105.98954439 3.05032361 C-126.32636995 3.03986831 -146.66318418 3.02227662 -167 3 C-165.90050411 1.52534103 -165.90050411 1.52534103 -164 0 C-161.14325047 -0.38755417 -161.14325047 -0.38755417 -157.5919342 -0.40545654 C-156.93882482 -0.41280894 -156.28571543 -0.42016133 -155.61281484 -0.42773652 C-153.4202005 -0.44876192 -151.228108 -0.44844206 -149.03540039 -0.44824219 C-147.46510423 -0.45889344 -145.8948164 -0.47084205 -144.32453918 -0.48399353 C-140.05598262 -0.51591457 -135.78754696 -0.52924868 -131.51888967 -0.53904247 C-127.05505199 -0.55213123 -122.5913182 -0.58127273 -118.12754822 -0.60845947 C-110.62973111 -0.65179239 -103.13193407 -0.68389276 -95.6340332 -0.70849609 C-86.00835946 -0.74014247 -76.38287629 -0.79034403 -66.75731754 -0.84641647 C-58.48619981 -0.89443612 -50.21504397 -0.93375932 -41.94387507 -0.97177219 C-39.28343559 -0.98438316 -36.62300454 -0.99821969 -33.9625721 -1.01222992 C-29.78231719 -1.03370346 -25.6020745 -1.04975191 -21.42178154 -1.06158638 C-19.88668517 -1.06669695 -18.35159343 -1.07353086 -16.81651306 -1.08220482 C-14.72267504 -1.0937098 -12.62891389 -1.09892008 -10.53504944 -1.10247803 C-9.36273805 -1.10687771 -8.19042665 -1.11127739 -6.98259068 -1.11581039 C-4.44160716 -1.01714707 -2.37517863 -0.88828364 0 0 Z " fill="#777778" transform="translate(209,143)"/>
<path d="M0 0 C0.99 1.98 0.99 1.98 2 4 C-3.61123391 10.42314878 -9.57921163 14.27566361 -18 16 C-20.33300933 16.03888349 -22.66709801 16.0448635 -25 16 C-25 15.67 -25 15.34 -25 15 C-75.16 15 -125.32 15 -177 15 C-177 15.33 -177 15.66 -177 16 C-183.45512034 16.56131481 -188.15439723 14.63463787 -194 12 C-190.98968256 11.06576355 -190.13349732 10.95550089 -187 12 C-184.75530763 12.09228777 -182.50789485 12.12192982 -180.26130676 12.12025452 C-179.22840666 12.12153615 -179.22840666 12.12153615 -178.17463988 12.12284368 C-175.86224991 12.12449365 -173.54993214 12.118985 -171.23754883 12.11352539 C-169.58195497 12.11324339 -167.92636099 12.11340151 -166.27076721 12.1139679 C-161.77107746 12.11425536 -157.27141424 12.10836678 -152.77173066 12.10139394 C-148.07118504 12.095152 -143.37063885 12.09455593 -138.67008972 12.09336853 C-129.76660957 12.0902577 -120.86314166 12.08204764 -111.95966691 12.07201904 C-101.82436258 12.06085022 -91.68905767 12.05534551 -81.55374873 12.05032361 C-60.70249231 12.03986483 -39.85124693 12.02227017 -19 12 C-19 11.34 -19 10.68 -19 10 C-15.98968256 9.06576355 -15.13349732 8.95550089 -12 10 C-10.30485863 9.04906703 -8.63631892 8.04892238 -7 7 C-6.34 7 -5.68 7 -5 7 C-4.67 5.35 -4.34 3.7 -4 2 C-2.68 2 -1.36 2 0 2 C0 1.34 0 0.68 0 0 Z " fill="#803DFE" transform="translate(225,50)"/>
<path d="M0 0 C1.14947585 0.00829614 2.2989517 0.01659227 3.48326015 0.02513981 C4.79724285 0.0321793 6.11122555 0.03921879 7.4650259 0.0464716 C8.93484484 0.05945583 10.40466293 0.07253585 11.87448025 0.08570194 C13.41155123 0.09583863 14.94862518 0.10553296 16.48570156 0.11481571 C20.6715 0.14135789 24.85722977 0.17412472 29.04297471 0.20796561 C33.41252095 0.2422483 37.78210408 0.27086678 42.15168667 0.30007267 C50.43193874 0.3562847 58.7121446 0.41762927 66.99234623 0.48079401 C76.41658858 0.55243783 85.840868 0.61839616 95.26515496 0.68386447 C114.65703235 0.81870334 134.04885131 0.96072255 153.44064236 1.10743046 C153.44064236 1.43743046 153.44064236 1.76743046 153.44064236 2.10743046 C152.66004043 2.1116624 151.8794385 2.11589434 151.07518196 2.12025452 C132.09710738 2.22347867 113.11907078 2.33210402 94.14106178 2.44676971 C84.96350986 2.50208997 75.78595405 2.55557002 66.60836697 2.60474491 C58.61085949 2.64760139 50.6133805 2.69388311 42.61591703 2.74430901 C38.37982473 2.77089812 34.14373804 2.79575093 29.9076128 2.81650448 C25.92270262 2.83608133 21.9378466 2.86022829 17.95298481 2.88792133 C16.48844034 2.8972862 15.02388399 2.90496352 13.5593214 2.91084957 C11.56349501 2.9191202 9.56769917 2.93398586 7.57191372 2.94921207 C5.89471138 2.9588909 5.89471138 2.9588909 4.18362617 2.96876526 C1.3485259 2.98928753 1.3485259 2.98928753 -1.55935764 4.10743046 C-1.55935764 3.44743046 -1.55935764 2.78743046 -1.55935764 2.10743046 C-2.21935764 1.77743046 -2.87935764 1.44743046 -3.55935764 1.10743046 C-2.55935764 0.10743046 -2.55935764 0.10743046 0 0 Z " fill="#581CD2" transform="translate(46.55935764312744,9.892569541931152)"/>
<path d="M0 0 C8.46383219 1.06359661 14.87335589 4.20525006 21.01953125 10.21484375 C26.11951009 16.91121486 28.66332809 23.68453567 28.01953125 32.21484375 C27.39635653 33.56905034 26.73694953 34.9081176 26.01953125 36.21484375 C25.99375 35.41820312 25.96796875 34.6215625 25.94140625 33.80078125 C25.58936324 27.22397783 25.03730628 23.3990696 21.01953125 18.21484375 C21.01953125 16.89484375 21.01953125 15.57484375 21.01953125 14.21484375 C20.05015625 13.94671875 19.08078125 13.67859375 18.08203125 13.40234375 C16.56609375 12.81453125 16.56609375 12.81453125 15.01953125 12.21484375 C14.68953125 11.22484375 14.35953125 10.23484375 14.01953125 9.21484375 C7.91286298 5.48299092 2.05981667 4.19841304 -4.98046875 3.21484375 C-2.56230943 0.27796256 -2.56230943 0.27796256 0 0 Z " fill="#39CACC" transform="translate(204.98046875,167.78515625)"/>
<path d="M0 0 C8.52426811 1.52219073 14.05055612 5.22601745 19.375 12.0625 C24.03131123 18.7504267 25.55807133 25.45570487 24.5625 33.5625 C24.376875 34.366875 24.19125 35.17125 24 36 C21.53818048 32.30727073 22 30.36166671 22 26 C21.37400383 24.31763529 20.71247732 22.6476038 20 21 C20 19.68 20 18.36 20 17 C19.34 17 18.68 17 18 17 C16.95760439 15.80657548 15.96590275 14.56863796 15 13.3125 C11.55346028 9.22154424 8.0848511 7.16190592 3.234375 5.0078125 C1 4 1 4 -2 2 C-1.34 2 -0.68 2 0 2 C0 1.34 0 0.68 0 0 Z " fill="#8454E1" transform="translate(208,9)"/>
<path d="M0 0 C0.66 0.33 1.32 0.66 2 1 C1.34 1.5775 0.68 2.155 0 2.75 C-2.44290923 4.99653977 -2.44290923 4.99653977 -2 9 C-2.99 10.485 -2.99 10.485 -4 12 C-3.67 12.99 -3.34 13.98 -3 15 C-3.99 15.33 -4.98 15.66 -6 16 C-7.14814997 18.29629994 -7.30769809 20.07698086 -7.5625 22.625 C-7.64628906 23.44226563 -7.73007812 24.25953125 -7.81640625 25.1015625 C-7.87699219 25.72804688 -7.93757813 26.35453125 -8 27 C-7.34 27 -6.68 27 -6 27 C-5.25073929 30.66305234 -4.7619986 33.42355152 -6 37 C-9.89355039 29.55146881 -11.48142216 22.69712636 -9.31640625 14.37109375 C-7.1731883 8.54616529 -4.27595213 4.47031359 0 0 Z " fill="#865CDB" transform="translate(26,15)"/>
<path d="M0 0 C0.66 1.32 1.32 2.64 2 4 C-3.61123391 10.42314878 -9.57921163 14.27566361 -18 16 C-20.33300933 16.03888349 -22.66709801 16.0448635 -25 16 C-21.25 14 -21.25 14 -19 14 C-19 12.68 -19 11.36 -19 10 C-15.98968256 9.06576355 -15.13349732 8.95550089 -12 10 C-10.30485863 9.04906703 -8.63631892 8.04892238 -7 7 C-6.34 7 -5.68 7 -5 7 C-4.67 5.35 -4.34 3.7 -4 2 C-2.68 2 -1.36 2 0 2 C0 1.34 0 0.68 0 0 Z " fill="#743EDC" transform="translate(225,50)"/>
<path d="M0 0 C0 0.66 0 1.32 0 2 C1.32 2.33 2.64 2.66 4 3 C2.76636719 3.29390625 2.76636719 3.29390625 1.5078125 3.59375 C-5.93924525 5.58880473 -11.12085175 8.0489906 -16.87890625 13.1953125 C-18.85670387 14.87807954 -20.63512058 15.95966756 -23 17 C-19.16704003 8.7655549 -13.73123584 4.32722863 -5.453125 0.8125 C-3 0 -3 0 0 0 Z " fill="#40D1D6" transform="translate(42,168)"/>
<path d="M0 0 C0.66 0 1.32 0 2 0 C2.6484375 1.76171875 2.6484375 1.76171875 3 4 C0.00810903 10.30898749 -6.10915688 15.46549413 -12 19 C-14.77734375 19.69140625 -14.77734375 19.69140625 -17 20 C-17.33 19.01 -17.66 18.02 -18 17 C-16.75264433 16.3490741 -15.50198168 15.70448331 -14.25 15.0625 C-13.55390625 14.70285156 -12.8578125 14.34320313 -12.140625 13.97265625 C-10 13 -10 13 -7.80078125 12.52734375 C-7.20652344 12.35332031 -6.61226562 12.17929688 -6 12 C-5.29788106 10.34795544 -4.63028587 8.68076231 -4 7 C-3.01 6.67 -2.02 6.34 -1 6 C-0.67 4.02 -0.34 2.04 0 0 Z " fill="#343535" transform="translate(228,124)"/>
<path d="M0 0 C1.9375 0.3125 1.9375 0.3125 4 1 C4.33 1.99 4.66 2.98 5 4 C6.74897876 5.03643185 8.50243984 6.0678643 10.296875 7.0234375 C12.19161781 8.1098726 13.46346713 9.46346713 15 11 C17.59915538 12.19027984 17.59915538 12.19027984 20 13 C20 13.99 20 14.98 20 16 C20.99 16.33 21.98 16.66 23 17 C15.42131884 16.67750293 10.20074932 13.16551171 4.87109375 7.89453125 C0 2.49204545 0 2.49204545 0 0 Z " fill="#2C2D2F" transform="translate(19,128)"/>
<path d="M0 0 C4.65272826 1.23160454 6.71202698 3.69750469 9.5703125 7.34375 C11.70840418 9.82066495 13.4659315 10.91807343 16.69921875 11.4140625 C17.68535156 11.48367187 18.67148437 11.55328125 19.6875 11.625 C20.68136719 11.69976562 21.67523438 11.77453125 22.69921875 11.8515625 C23.45847656 11.90054688 24.21773437 11.94953125 25 12 C24.67 12.66 24.34 13.32 24 14 C16.34603474 14.55665202 10.76184339 12.92309628 4.65234375 8.17578125 C2.71900181 6.49476259 0.83868483 4.78357438 -1 3 C-0.67 2.01 -0.34 1.02 0 0 Z " fill="#46CBCE" transform="translate(23,211)"/>
<path d="M0 0 C5.52521529 0.69431909 10.39326431 1.9975358 15.01953125 5.21484375 C16.00953125 6.69984375 16.00953125 6.69984375 17.01953125 8.21484375 C16.35953125 8.87484375 15.69953125 9.53484375 15.01953125 10.21484375 C13.98828125 9.59609375 12.95703125 8.97734375 11.89453125 8.33984375 C6.43710285 5.23853404 1.24869284 3.96234314 -4.98046875 3.21484375 C-2.56230943 0.27796256 -2.56230943 0.27796256 0 0 Z " fill="#34CDD3" transform="translate(204.98046875,167.78515625)"/>
<path d="M0 0 C0.33 0 0.66 0 1 0 C1 2.64 1 5.28 1 8 C0.34 8 -0.32 8 -1 8 C0.3056084 12.72027651 1.79250673 17.29943738 3.51171875 21.88671875 C4.066677 24.28857804 3.77761006 25.68804525 3 28 C-1.52289023 20.55911607 -3.38732441 13.59883871 -1.55078125 4.86328125 C-1.08290046 3.22735762 -0.54833718 1.61074048 0 0 Z " fill="#58D2D5" transform="translate(18,185)"/>
<path d="M0 0 C1.65 0 3.3 0 5 0 C1.52437553 3.79159033 -2.01191918 7.36682166 -7 9 C-10.08781236 9.02954844 -12.98164477 8.62967955 -16 8 C-16 7.67 -16 7.34 -16 7 C-14.35 7 -12.7 7 -11 7 C-11 6.34 -11 5.68 -11 5 C-7.7 4.67 -4.4 4.34 -1 4 C-0.67 2.68 -0.34 1.36 0 0 Z " fill="#51CCCE" transform="translate(220,215)"/>
<path d="M0 0 C6.04433574 1.35997554 9.63494136 4.85651794 14 9 C13.01 9.66 12.02 10.32 11 11 C7 8 3 5 -1 2 C-0.67 1.34 -0.34 0.68 0 0 Z " fill="#474A48" transform="translate(212,90)"/>
<path d="M0 0 C3.49461819 3.49461819 3.92459339 7.88775258 4.25 12.6875 C4.01157269 15.84666187 3.48080179 17.3028253 2 20 C1.92652344 18.73542969 1.92652344 18.73542969 1.8515625 17.4453125 C1.77679688 16.34960938 1.70203125 15.25390625 1.625 14.125 C1.55539063 13.03445312 1.48578125 11.94390625 1.4140625 10.8203125 C1.26746509 7.86953526 1.26746509 7.86953526 -1 6 C-0.625 2.875 -0.625 2.875 0 0 Z " fill="#68D6DA" transform="translate(229,184)"/>
<path d="M0 0 C0.66 1.32 1.32 2.64 2 4 C-2.30769231 8.92307692 -2.30769231 8.92307692 -5.8125 9.3125 C-6.534375 9.209375 -7.25625 9.10625 -8 9 C-7.67 8.34 -7.34 7.68 -7 7 C-6.34 7 -5.68 7 -5 7 C-4.67 5.35 -4.34 3.7 -4 2 C-2.68 2 -1.36 2 0 2 C0 1.34 0 0.68 0 0 Z " fill="#6D34E0" transform="translate(225,50)"/>
<path d="M0 0 C3.99045366 0.50941962 7.93197772 1.13627787 11.875 1.9375 C12.63554688 2.09089844 13.39609375 2.24429688 14.1796875 2.40234375 C15.08074219 2.69818359 15.08074219 2.69818359 16 3 C16.33 3.66 16.66 4.32 17 5 C10.54487966 5.56131481 5.84560277 3.63463787 0 1 C0 0.67 0 0.34 0 0 Z " fill="#7E51DA" transform="translate(31,61)"/>
<path d="M0 0 C1 2 1 2 0.4765625 3.953125 C0.05503906 5.09007812 0.05503906 5.09007812 -0.375 6.25 C-1.6402194 9.82612241 -2.51571387 13.22256819 -3 17 C-3.66 16.67 -4.32 16.34 -5 16 C-5 14.02 -5 12.04 -5 10 C-4.34 10 -3.68 10 -3 10 C-3.061875 8.72125 -3.12375 7.4425 -3.1875 6.125 C-3.29296875 3.9453125 -3.29296875 3.9453125 -3 2 C-2.01 1.34 -1.02 0.68 0 0 Z " fill="#21C7CE" transform="translate(22,183)"/>
<path d="M0 0 C0.66 0.33 1.32 0.66 2 1 C0.92646259 2.4655595 -0.1592554 3.92220152 -1.25 5.375 C-1.85328125 6.18710938 -2.4565625 6.99921875 -3.078125 7.8359375 C-4.97181904 9.96826778 -6.38328518 10.94636704 -9 12 C-7.55575365 8.76138697 -5.74227753 6.38030837 -3.375 3.75 C-2.74335938 3.04359375 -2.11171875 2.3371875 -1.4609375 1.609375 C-0.97882812 1.07828125 -0.49671875 0.5471875 0 0 Z " fill="#59CED4" transform="translate(28,173)"/>
<path d="M0 0 C1.33257403 9.41002278 1.33257403 9.41002278 0 14 C-0.99 13.67 -1.98 13.34 -3 13 C-3 9.04 -3 5.08 -3 1 C-1 0 -1 0 0 0 Z " fill="#3D3E40" transform="translate(232,110)"/>
<path d="M0 0 C1.9375 0.3125 1.9375 0.3125 4 1 C4.33 1.99 4.66 2.98 5 4 C6.29355827 5.37195574 7.62298702 6.71182656 9 8 C8.34 8.66 7.68 9.32 7 10 C5.82739389 8.71372289 4.6620717 7.42080217 3.5 6.125 C2.8503125 5.40570313 2.200625 4.68640625 1.53125 3.9453125 C0 2 0 2 0 0 Z " fill="#313133" transform="translate(19,128)"/>
<path d="M0 0 C1.32 1.32 2.64 2.64 4 4 C3.67 4.33 3.34 4.66 3 5 C4.98 5.66 6.96 6.32 9 7 C8.67 7.99 8.34 8.98 8 10 C3.61740632 8.66087415 1.45906075 6.87774964 -1 3 C-0.67 2.01 -0.34 1.02 0 0 Z " fill="#8759E5" transform="translate(23,51)"/>
<path d="M0 0 C0.33 0 0.66 0 1 0 C1.21278058 4.46839215 0.59138085 7.82262526 -1 12 C-1.99 11.67 -2.98 11.34 -4 11 C-3.49172849 6.62886504 -2.54826592 3.61004338 0 0 Z " fill="#424242" transform="translate(21,101)"/>
<path d="M0 0 C0.66 0.33 1.32 0.66 2 1 C1.34 1.5775 0.68 2.155 0 2.75 C-2.44290923 4.99653977 -2.44290923 4.99653977 -2 9 C-3.98 9.99 -3.98 9.99 -6 11 C-5.62671065 5.64951939 -4.0042343 3.49087093 0 0 Z " fill="#9E79E6" transform="translate(26,15)"/>
<path d="M0 0 C0.33 0 0.66 0 1 0 C1.66 4.29 2.32 8.58 3 13 C2.01 13.33 1.02 13.66 0 14 C-0.91297308 9.02936879 -0.91297308 4.97063121 0 0 Z " fill="#353638" transform="translate(18,114)"/>
<path d="M0 0 C3.93673644 1.31224548 6.22719294 2.91910327 9 6 C8.34 6.66 7.68 7.32 7 8 C5 6.625 5 6.625 3 5 C3 4.34 3 3.68 3 3 C2.34 3 1.68 3 1 3 C0.67 2.01 0.34 1.02 0 0 Z " fill="#4DD1D2" transform="translate(213,170)"/>
<path d="M0 0 C0 0.66 0 1.32 0 2 C-0.99 2.33 -1.98 2.66 -3 3 C-3 3.66 -3 4.32 -3 5 C-5.97 4.67 -8.94 4.34 -12 4 C-12 3.67 -12 3.34 -12 3 C-10.35 3 -8.7 3 -7 3 C-7 2.34 -7 1.68 -7 1 C-4.50935112 0.31292445 -2.62113708 0 0 0 Z " fill="#28CED3" transform="translate(216,219)"/>
<path d="M0 0 C0.66 0 1.32 0 2 0 C1.46884894 4.51478398 -0.36620292 7.34666857 -3 11 C-3.98995103 8.32713221 -4.04574968 7.14780667 -3.1875 4.375 C-2 2 -2 2 0 0 Z " fill="#4FCECD" transform="translate(229,204)"/>
<path d="M0 0 C3.2542015 2.83430453 4.5206753 4.68607774 5 9 C4.01 9.33 3.02 9.66 2 10 C-0.09350689 6.5980513 -0.17942163 3.94727588 0 0 Z " fill="#444547" transform="translate(226,100)"/>
<path d="M0 0 C0.66 0 1.32 0 2 0 C2.75 1.625 2.75 1.625 3 4 C1.0625 7.25 1.0625 7.25 -1 10 C-2.46726798 6.18510326 -1.43336419 3.70988378 0 0 Z " fill="#434445" transform="translate(228,124)"/>
<path d="M0 0 C0.99 0.33 1.98 0.66 3 1 C3.33 2.65 3.66 4.3 4 6 C3.01 6.33 2.02 6.66 1 7 C0.67 6.67 0.34 6.34 0 6 C-0.66 6.66 -1.32 7.32 -2 8 C-1.125 2.25 -1.125 2.25 0 0 Z " fill="#814CE7" transform="translate(19,24)"/>
<path d="M0 0 C2.375 0.1875 2.375 0.1875 5 1 C6.4375 3.375 6.4375 3.375 7 6 C6.01 7.485 6.01 7.485 5 9 C5 7.68 5 6.36 5 5 C4.34 5 3.68 5 3 5 C1.375 2.5 1.375 2.5 0 0 Z " fill="#7843E1" transform="translate(223,21)"/>
<path d="M0 0 C0.99 0.33 1.98 0.66 3 1 C2.50168276 4.68754757 1.89932357 6.60490662 -1 9 C-1.125 2.25 -1.125 2.25 0 0 Z " fill="#804EDF" transform="translate(228,44)"/>
<path d="M0 0 C-2.1413437 2.46254526 -3.69870394 3.69050349 -7 4 C-7.99 3.34 -8.98 2.68 -10 2 C-6.5980513 -0.09350689 -3.94727588 -0.17942163 0 0 Z " fill="#8453E4" transform="translate(221,59)"/>
<path d="M0 0 C1.16959987 0.97566112 2.33561177 1.955625 3.5 2.9375 C4.1496875 3.48277344 4.799375 4.02804688 5.46875 4.58984375 C5.9740625 5.05519531 6.479375 5.52054688 7 6 C7 6.33 7 6.66 7 7 C5.35 7 3.7 7 2 7 C0.5393715 4.35261084 0 3.10551666 0 0 Z " fill="#9067D8" transform="translate(220,14)"/>
<path d="M0 0 C1.32 0.33 2.64 0.66 4 1 C1.6875 3.5 1.6875 3.5 -1 6 C-1.99 6 -2.98 6 -4 6 C-2.68 4.02 -1.36 2.04 0 0 Z " fill="#30CDD0" transform="translate(30,172)"/>
<path d="M0 0 C-0.33 0.66 -0.66 1.32 -1 2 C-4.0625 2.625 -4.0625 2.625 -7 3 C-7 2.34 -7 1.68 -7 1 C-7.66 0.67 -8.32 0.34 -9 0 C-5.52176885 -1.15941038 -3.54104422 -0.70820884 0 0 Z " fill="#8251E5" transform="translate(44,10)"/>
<path d="M0 0 C1.65 0.33 3.3 0.66 5 1 C5 1.99 5 2.98 5 4 C5.99 4.33 6.98 4.66 8 5 C1.25 4.25 1.25 4.25 -1 2 C-0.67 1.34 -0.34 0.68 0 0 Z " fill="#464748" transform="translate(34,140)"/>
<path d="M0 0 C5.75 1.625 5.75 1.625 8 5 C7.01 5.33 6.02 5.66 5 6 C2.3125 4.1875 2.3125 4.1875 0 2 C0 1.34 0 0.68 0 0 Z " fill="#313234" transform="translate(218,95)"/>
<path d="M0 0 C0.99 0.33 1.98 0.66 3 1 C3 1.66 3 2.32 3 3 C1.35 3.66 -0.3 4.32 -2 5 C-2.33 4.67 -2.66 4.34 -3 4 C-3.66 3.67 -4.32 3.34 -5 3 C-2.6875 1.4375 -2.6875 1.4375 0 0 Z " fill="#8F63E9" transform="translate(33,11)"/>
<path d="M0 0 C-0.33 0.99 -0.66 1.98 -1 3 C-2.65 3.33 -4.3 3.66 -6 4 C-6.33 3.01 -6.66 2.02 -7 1 C-4 0 -4 0 0 0 Z " fill="#464847" transform="translate(217,140)"/>
<path d="M0 0 C2.475 0.99 2.475 0.99 5 2 C4.01 3.32 3.02 4.64 2 6 C1.01 4.68 0.02 3.36 -1 2 C-0.67 1.34 -0.34 0.68 0 0 Z " fill="#30CCD3" transform="translate(23,211)"/>
</svg>
