<?xml version="1.0" standalone="no"?>
<!DOCTYPE svg PUBLIC "-//W3C//DTD SVG 20010904//EN"
 "http://www.w3.org/TR/2001/REC-SVG-20010904/DTD/svg10.dtd">
<svg version="1.0" xmlns="http://www.w3.org/2000/svg"
 width="247.000000pt" height="239.000000pt" viewBox="0 0 247.000000 239.000000"
 preserveAspectRatio="xMidYMid meet">

<g transform="translate(0.000000,239.000000) scale(0.100000,-0.100000)"
fill="#000000" stroke="none">
<path d="M385 2286 c-61 -19 -97 -41 -136 -83 -50 -52 -70 -96 -76 -163 -14
-146 91 -269 256 -300 78 -15 1563 -14 1633 1 157 34 253 140 252 280 0 84
-38 157 -110 211 -93 71 -47 68 -958 67 -633 0 -830 -3 -861 -13z m-105 -80
c0 -2 -8 -10 -17 -17 -16 -13 -17 -12 -4 4 13 16 21 21 21 13z"/>
<path d="M429 1500 c-152 -27 -259 -142 -259 -278 0 -25 5 -63 12 -84 16 -53
89 -133 152 -166 l51 -27 842 -3 841 -2 58 21 c109 41 194 155 194 259 0 100
-76 208 -178 253 l-57 25 -805 5 c-443 3 -826 2 -851 -3z"/>
</g>
</svg>
